# xmcd CD database file
#
# Track frame offsets:
#	150
#	20017
#	38637
#	69830
#
# Disc length: 1344 seconds
#
# Revision: 0
# Processed by: cddbd v1.5.1PL2 Copyright (c) Steve Scherf et al.
# Submitted via: CDex 1.51
#
DISCID=28053e04
DTITLE=扇愛奈 - 輪廻
DYEAR=2005
DGENRE=JPop
TTITLE0=輪廻
TTITLE1=かくれんぼ
TTITLE2=輪廻(Instrumental)
TTITLE3=EXTRA TRACK「スタンプラリー」
EXTD=YEAR: 2005
EXTT0=
EXTT1=
EXTT2=
EXTT3=
PLAYORDER=
